<svg width="200" height="34" fill="none" xmlns="http://www.w3.org/2000/svg">
 <g fill="#2c2c2c">
  <path d="M49.4 20.8h5.76l-2.79-8.45h-.162zm134-9.58V8.03h16.5v3.19h-6.4v17.8h-3.73v-17.8zm-2.88-3.19v21h-3.76v-21zm-7.55 21h-3.34l-9.76-14.3h-.172v14.3h-3.76v-21h3.36l9.76 14.3h.183V8.03h3.73zm-24.4-14.3c-1.61-5.42-10.6-5.22-10.6 3.78 0 8.96 8.34 8.69 10.4 5.04.417-.759.626-1.51.626-2.52h-4.78v-2.96h8.41c0 2.65.194 4.87-1.13 7.19-3.8 6.64-17.3 5.86-17.3-6.68 0-14 16.8-13.5 18.2-3.81zm-30.6 14.3h-4.02l7.29-21h4.63l7.31 21h-4.02l-1.72-5.18h-7.79zm8.49-8.23-2.8-8.45h-.161l-2.8 8.45zM89.76 8h4.59l6.16 15.2h.245l6.16-15.2h4.58v21h-3.6V14.6h-.192l-5.72 14.4h-2.69l-5.72-14.4h-.192v14.5h-3.6zm-3.78 0v21h-3.76V8zm-21.3 0 5.39 16.5h.213L75.673 8h4.13l-7.31 21h-4.63l-7.29-21zM56.1 23.8h-7.79l-1.71 5.18h-4.02l7.29-21h4.63l7.31 21h-4.02z"  />
  <path d="M17.6 4.83 10.54.04 6.93 5.4l7.06 4.79 3.61-5.36zm7.89 21.2L28 20.96l-7.78-3.5-2.69 5.44c-1.26 2.27-4.22 3.04-6.58 1.72-2.47-1.37-3.39-4.46-1.81-6.86l2.97-4.81-7.1-4.74-3.56 5.77c-3.43 5.88-1.05 14.1 5.6 17.8 6.78 3.76 15.1 1.37 18.4-5.75l-.004.002zm-3.89-11.6 7.8 3.45 2.64-5.9-7.8-3.45-2.64 5.9z"  />
 </g>
</svg>