<?xml version="1.0" encoding="UTF-8"?> <svg xmlns="http://www.w3.org/2000/svg" width="15" height="15" viewBox="0 0 15 15" fill="none"><path d="M0.34475 2.2107C0.2732 1.19707 1.13154 0.408203 2.14562 0.408203H4.31633C4.83688 0.408203 5.30637 0.721845 5.50658 1.20334L6.41428 3.38637C6.63541 3.91816 6.47847 4.53239 6.02955 4.89229L5.46371 5.34589C5.2112 5.54832 5.12535 5.89738 5.27507 6.18433C6.04451 7.65893 7.1817 8.91042 8.56462 9.81668C8.85652 10.0079 9.2421 9.93185 9.4599 9.6591L10.0495 8.92049C10.4087 8.47065 11.0216 8.31343 11.5523 8.53498L13.7308 9.44457C14.2114 9.6452 14.5244 10.1157 14.5244 10.6373V12.8188C14.5244 13.835 13.708 14.6595 12.6965 14.5876C6.22833 14.1274 0.803298 8.70681 0.34475 2.2107Z" fill="white"></path></svg> 