<?xml version="1.0" encoding="UTF-8"?> <svg xmlns="http://www.w3.org/2000/svg" width="16" height="13" viewBox="0 0 16 13" fill="none"><path d="M14.1827 0.404244C14.1827 0.404244 15.5769 -0.132967 15.4607 1.17169C15.422 1.70891 15.0734 3.58914 14.8023 5.62288L13.8729 11.6473C13.8729 11.6473 13.7955 12.5299 13.0984 12.6834C12.4014 12.8369 11.3558 12.1462 11.1622 11.9927C11.0073 11.8776 8.25779 10.1508 7.28963 9.30662C7.01855 9.07638 6.70875 8.61591 7.32835 8.0787L11.3945 4.24149C11.8592 3.78101 12.3239 2.70659 10.3877 4.01125L4.96612 7.65662C4.96612 7.65662 4.34652 8.04033 3.18478 7.69499L0.667617 6.92754C0.667617 6.92754 -0.261792 6.35196 1.32595 5.77635C5.19849 3.97285 9.9617 2.13098 14.1827 0.404244Z" fill="white"></path></svg> 