<svg xmlns="http://www.w3.org/2000/svg" width="512" height="512" viewBox="0 0 512 512" data-svgdocument="" id="_brjiXIumJSm8PJPBT0sXm" class="fl-svgdocument" x="0" y="0" overflow="hidden" style="overflow: visible;"><g id="_efmyNrE5oe2RzzuSDLlZl" transform="matrix(1.0015041540280833, 0, 0, 1.0015041540280833, -4.477349758364051, -0.9200314977770887)" data-uid="o-c63bbe5bb3ea4386a38f028d5d419a2d"><path id="_HmkaX-Od7FViYLsvfE4v0" fill="#2dd902" transform="matrix(2.8182435035705566, 0.7026680111885071, -0.7026680111885071, 2.8182435035705566, 175.49623107910156, 35.477874755859375)" data-type="circle" data-cx="9" data-cy="75" data-r="2" d="M9,75m-2,0a2,2 0 1, 0 4,0a2,2 0 1, 0 -4,0" data-uid="o-f07473b31b5f4480ab61631578e0115e"></path><path id="_VPHCrKQgTialHAreTCfUs" fill="#2dd902" transform="matrix(2.8182435035705566, 0.7026680111885071, -0.7026680111885071, 2.8182435035705566, 175.49832153320312, 35.477664947509766)" data-type="circle" data-cx="55" data-cy="75" data-r="2" d="M55,75m-2,0a2,2 0 1, 0 4,0a2,2 0 1, 0 -4,0" data-uid="o-e2c6acbc9dae47568fedb808c15d465d"></path><path id="_T4Q9t0F6XEodqbNNOqoVU" d="M59.212 47.565c-0.495 0.988-0.095 2.189 0.893 2.684c0.987 0.493 2.188 0.094 2.684-0.893C64.256 46.425 65 43.277 65 40  v-4c0-13.785-11.215-25-25-25S15 22.215 15 36v4c0 15.991 13.01 29 29 29c1.79 0 3.597-0.17 5.371-0.504  c1.085-0.205 1.799-1.25 1.594-2.336c-0.204-1.085-1.243-1.795-2.336-1.595C47.099 64.854 45.542 65 44 65  c-13.785 0-25-11.215-25-25v-4c0-11.58 9.421-21 21-21s21 9.42 21 21v4C61 42.649 60.398 45.195 59.212 47.565z" fill="#2dd902" transform="matrix(2.8182435035705566, 0.7026680111885071, -0.7026680111885071, 2.8182435035705566, 175.48825073242188, 35.47336196899414)" data-uid="o-7951f7a7913447d7bb8d09153cd7001c"></path><path id="_G-K3q-H6kXD9n5iUFgtl-" d="M9 71c1.104 0 2-0.896 2-2V36C11 20.009 24.01 7 40 7s29 13.009 29 29v4c0 7.565-3.375 14.643-9.261 19.419  c-0.857 0.696-0.988 1.956-0.292 2.813c0.697 0.859 1.956 0.989 2.813 0.292C69.086 56.986 73 48.776 73 40v-4  C73 17.804 58.196 3 40 3S7 17.804 7 36v33C7 70.104 7.896 71 9 71z" fill="#2dd902" transform="matrix(2.8182435035705566, 0.7026680111885071, -0.7026680111885071, 2.8182435035705566, 175.4884490966797, 35.47315216064453)" data-uid="o-7d660d52c5374c8987fcfb858ccda678"></path><path id="_xuB6B9MLnvuBMfaKr5N3X" d="M57 36c0-9.374-7.626-17-17-17s-17 7.626-17 17v4c0 11.58 9.421 21 21 21c1.856 0 3.717-0.252 5.529-0.75  c1.065-0.292 1.691-1.393 1.399-2.458c-0.293-1.065-1.395-1.693-2.458-1.399C47.002 56.796 45.498 57 44 57c-9.374 0-17-7.626-17-17  v-4c0-7.168 5.832-13 13-13s13 5.832 13 13v33c0 1.104 0.896 2 2 2s2-0.896 2-2V36z" fill="#2dd902" transform="matrix(2.8182435035705566, 0.7026680111885071, -0.7026680111885071, 2.8182435035705566, 175.48855590820312, 35.47357177734375)" data-uid="o-0956a5d9d6cf4977a956648c87c03098"></path></g><path text="ilgiz" text-anchor="middle" font-size="100" letter-spacing="0" side="left" offset="0.5" dx="0" dy="0" space="preserve" href="" font-family="Source Sans Pro" font-scale="contain" transform="matrix(1.2485272831296672, 0, 0, 1.2485272831296672, 247.0398486711041, 389.82374599383013)" x="0" y="0" fill="#0b94ba" font-weight="700" font-style="italic" data-fl-textpath="" id="_HShkZHjW1bS6ND4235DEv" data-uid="o-bb21e3148999414691073e9fd935a5bb" d="M-74.6 0L-88.3 0L-78.3-49.6L-64.7-49.6L-74.6 0ZM-68.9-57L-68.9-57Q-71.7-57 -74-58.65Q-76.3-60.3 -76.3-63.6L-76.3-63.6Q-76.3-65.2 -75.65-66.7Q-75-68.2 -73.85-69.3Q-72.7-70.4 -71.15-71.05Q-69.6-71.7 -67.8-71.7L-67.8-71.7Q-64.9-71.7 -62.65-70Q-60.4-68.3 -60.4-65.1L-60.4-65.1Q-60.4-61.6 -62.85-59.3Q-65.3-57 -68.9-57ZM-49.5 1.2L-49.5 1.2Q-54.9 1.2 -57.2-1.4Q-59.5-4 -59.5-8.5L-59.5-8.5Q-59.5-11.1 -58.8-14.6L-58.8-14.6L-47.7-70.1L-34-70.1L-45.3-14Q-45.5-13.2 -45.5-12.85Q-45.5-12.5 -45.5-12.1L-45.5-12.1Q-45.5-10.8 -44.95-10.3Q-44.4-9.8 -43.6-9.8L-43.6-9.8Q-43.1-9.8 -42.8-9.8Q-42.5-9.8 -41.8-10L-41.8-10L-42.2 0.1Q-43.5 0.6 -45.3 0.9Q-47.1 1.2 -49.5 1.2ZM-18.6 21.3L-18.6 21.3Q-23.1 21.3 -27.9 19.55Q-32.7 17.8-36.9 14.3L-36.9 14.3L-31 5.2Q-28.1 7.4 -24.9 8.9Q-21.7 10.4 -18.2 10.4L-18.2 10.4Q-8.4 10.4 -5.5 0L-5.5 0L-2.9-8.8Q-6.2-5.3 -10.05-3.45Q-13.9-1.6 -18.1-1.6L-18.1-1.6Q-24.4-1.6 -28.5-5.85Q-32.6-10.1 -32.6-18.9L-32.6-18.9Q-32.6-25.6 -30.45-31.4Q-28.3-37.2 -24.75-41.5Q-21.2-45.8 -16.5-48.3Q-11.8-50.8 -6.7-50.8L-6.7-50.8Q-3.3-50.8 -0.4-49.05Q 2.5-47.3  3.9-44.3L 3.9-44.3L 4.2-44.3L 6.3-49.6L 17.4-49.6L 7.7-0.8Q 5.4 10.3 -1.35 15.8Q-8.1 21.3 -18.6 21.3ZM-12.8-12.7L-12.8-12.7Q-10.3-12.7 -7.5-14.1Q-4.7-15.5 -2.3-19.2L-2.3-19.2L 0.8-34.9Q-0.5-37.4 -2.25-38.5Q-4-39.6 -5.7-39.6L-5.7-39.6Q-8.3-39.6 -10.6-38.15Q-12.9-36.7 -14.6-34.15Q-16.3-31.6 -17.35-28.15Q-18.4-24.7 -18.4-20.7L-18.4-20.7Q-18.4-16.6 -16.9-14.65Q-15.4-12.7 -12.8-12.7ZM 34 0L 20.3 0L 30.3-49.6L 43.9-49.6L 34 0ZM 39.7-57L 39.7-57Q 36.9-57  34.6-58.65Q 32.3-60.3  32.3-63.6L 32.3-63.6Q 32.3-65.2  32.95-66.7Q 33.6-68.2  34.75-69.3Q 35.9-70.4  37.45-71.05Q 39-71.7  40.8-71.7L 40.8-71.7Q 43.7-71.7  45.95-70Q 48.2-68.3  48.2-65.1L 48.2-65.1Q 48.2-61.6  45.75-59.3Q 43.3-57  39.7-57ZM 82.3 0L 44.4 0L 45.9-7.7L 72.2-38.9L 54.3-38.9L 56.3-49.6L 91.4-49.6L 89.9-41.7L 63.6-10.7L 84.4-10.7L 82.3 0Z"></path><path id="_z8SEnokMTARaq_RbOdVhg" fill="#2dd902" transform="matrix(0.8916090979343813, 0, 0, 0.8916090979343813, 253.97856885007312, 462.9300650010162)" text="87" text-anchor="middle" font-size="100" letter-spacing="0" side="left" offset="0.5" dx="0" dy="0" space="preserve" href="" font-family="Source Sans Pro" font-scale="contain" x="0" y="0" font-weight="700" font-style="italic" data-fl-textpath="" data-uid="o-3bee0e584fa54153bff75429bb527180" d="M-27.6 1.2L-27.6 1.2Q-31 1.2 -34.45 0.25Q-37.9-0.7 -40.75-2.7Q-43.6-4.7 -45.4-7.85Q-47.2-11 -47.2-15.4L-47.2-15.4Q-47.2-18.7 -46.1-21.45Q-45-24.2 -43.15-26.45Q-41.3-28.7 -38.8-30.4Q-36.3-32.1 -33.5-33.2L-33.5-33.2L-33.5-33.6Q-36.2-36.4 -37.6-39.55Q-39-42.7 -39-46.5L-39-46.5Q-39-50.7 -37.35-54.1Q-35.7-57.5 -32.85-59.85Q-30-62.2 -26.3-63.45Q-22.6-64.7 -18.4-64.7L-18.4-64.7Q-15.2-64.7 -12.1-63.85Q-9-63 -6.55-61.15Q-4.1-59.3 -2.6-56.5Q-1.1-53.7 -1.1-49.8L-1.1-49.8Q-1.1-43.8 -4.2-39.6Q-7.3-35.4 -12.5-32.6L-12.5-32.6L-12.5-32.2Q-9.1-29.9 -6.85-26.25Q-4.6-22.6 -4.6-17.7L-4.6-17.7Q-4.6-13.3 -6.45-9.85Q-8.3-6.4 -11.45-3.9Q-14.6-1.4 -18.8-0.1Q-23 1.2 -27.6 1.2ZM-18.7-36.5L-18.7-36.5Q-16.4-38.5 -14.6-41.25Q-12.8-44 -12.8-47.8L-12.8-47.8Q-12.8-51 -14.4-53Q-16-55 -19.4-55L-19.4-55Q-22.5-55 -24.75-52.9Q-27-50.8 -27-47L-27-47Q-27-43.4 -24.9-41.05Q-22.8-38.7 -18.7-36.5ZM-26.6-8.3L-26.6-8.3Q-24.8-8.3 -23.05-8.9Q-21.3-9.5 -20-10.65Q-18.7-11.8 -17.9-13.55Q-17.1-15.3 -17.1-17.6L-17.1-17.6Q-17.1-21.4 -20.1-23.9Q-23.1-26.4 -27.9-29.1L-27.9-29.1Q-30.9-27 -32.95-24Q-35-21 -35-16.9L-35-16.9Q-35-13.3 -32.8-10.8Q-30.6-8.3 -26.6-8.3ZM 24.1 0L 10 0Q 12.2-8.3  14.75-15.55Q 17.3-22.8  20.55-29.25Q 23.8-35.7  27.75-41.35Q 31.7-47  36.8-52L 36.8-52L 9.9-52L 12.2-63.5L 54.3-63.5L 52.6-54.9Q 45.4-48.3  40.65-41.5Q 35.9-34.7  32.7-27.8Q 29.5-20.9  27.55-13.95Q 25.6-7  24.1 0L 24.1 0Z"></path><path id="_vJFNdhlUwXIjfqC1U753H" fill="#0b94ba" transform="matrix(3.960638203638591, 0.7698637086182188, -0.7698637086182188, 3.960638203638591, 100.4969340373329, -87.98473824302644)" d="M52.834 39.618h2.707c2.39 0 4.334-1.945 4.334-4.335v-4.79c0-0.829-0.672-1.5-1.5-1.5s-1.5 0.671-1.5 1.5v4.79  c0 0.736-0.599 1.335-1.334 1.335h-2.707c-0.104 0-0.205 0.011-0.303 0.031c-2.246 0.159-4.031 2.018-4.031 4.304v3.305h-4.041  c-2.39 0-4.334 1.944-4.334 4.334v12.541c0 5.445 4.43 9.875 9.875 9.875s9.875-4.43 9.875-9.875V48.592  c0-2.39-1.944-4.334-4.335-4.334H51.5v-3.305C51.5 40.217 52.099 39.618 52.834 39.618z M55.54 47.258  c0.736 0 1.335 0.599 1.335 1.334v12.541c0 3.791-3.084 6.875-6.875 6.875s-6.875-3.084-6.875-6.875V48.592  c0-0.735 0.599-1.334 1.334-1.334H55.54z M50 56.583c0.828 0 1.5-0.672 1.5-1.5v-4.096c0-0.829-0.672-1.5-1.5-1.5  c-0.829 0-1.5 0.671-1.5 1.5v4.096C48.5 55.911 49.171 56.583 50 56.583z" data-uid="o-1bf3b9baead34b2d897de468e467144a"></path></svg>