<svg xmlns="http://www.w3.org/2000/svg" width="512" height="512" viewBox="0 0 512 512" style="overflow: visible;" data-bbox="37.869 84.081 438.201 343.838"><defs transform="matrix(1.085543760042021, 0, 0, 1.085543760042021, -20.09954162573838, -22.058383325895857)" data-uid="o-dccec6f200e54688808752b496124071"><linearGradient x1="11.7%" y1="82.14%" x2="88.3%" y2="17.86%" id="o-d7f7ee34f8ac4d1b956c51247fe6a9b1" gradientUnits="objectBoundingBox" data-uid="o-c4c8d703dded491199b2372bb1823293"><stop offset="0%" stop-color="rgb(20, 230, 221)" stop-opacity="1.00" data-uid="o-518fff632428435eab4242682f809065"></stop><stop offset="100%" stop-color="rgb(22, 145, 139)" stop-opacity="1.00" data-uid="o-8cc635bee6cf48879aad5a4697bcc02f"></stop></linearGradient><linearGradient x1="14.04%" y1="84.74%" x2="85.96%" y2="15.26%" id="o-68b27b97571642b48733d5b3b52433b6" gradientUnits="objectBoundingBox" data-uid="o-408cde3495db4770b53699dee3aae19c"><stop offset="0%" stop-color="rgb(20, 230, 221)" stop-opacity="1.00" data-uid="o-c7d59cccdc2a4acdb28dd5dca82fc328"></stop><stop offset="100%" stop-color="rgb(22, 145, 139)" stop-opacity="1.00" data-uid="o-6526d0f6e25e4479acb7a843fee4fb40"></stop></linearGradient></defs><rect data-uid="o-783f3c3ced54484ebff146f3b2f7bdc8" data-fl-background="" x="0" y="0" width="512" height="512" fill="#eafefd"></rect><g transform="matrix(0.7306206499472303, 0, 0, 0.7306206499472303, 75.96974350907016, -27.497562513821162)" data-uid="o-acf74dec3eb04c0f9e9108035d5c3114"><path class="st1" d="M379.5 631.2l-170.7-97.9c-11.9-6.9-20.6-21.8-20.6-35.5V301.9c0-13.7 8.7-28.6 20.6-35.4l170.7-98
				c11.5-6.6 29.6-6.6 41.2 0l170.6 98c12 6.8 20.6 21.7 20.6 35.4v195.9c0 13.7-8.7 28.6-20.6 35.5l-170.6 97.9
				C408.6 638.1 391.3 638.1 379.5 631.2L379.5 631.2z M383.9 176.3l-170.7 98c-9.1 5.2-16.1 17.2-16.1 27.7v195.9
				c0 10.6 6.9 22.5 16.1 27.8l170.7 98c8.8 5.1 23.3 5.1 32.2 0l170.6-98c9.2-5.3 16.2-17.2 16.2-27.8V301.9
				c0-10.5-6.9-22.5-16.2-27.7l-170.6-98C406.9 171 393.1 171 383.9 176.3L383.9 176.3z" fill="#106d69" transform="matrix(0.6221763491630554, 0, 0, 0.6221763491630554, 0, 7.1294660568237305)" data-uid="o-e456fc2ba2b34a07a6dc94c30454bbd6"></path><path class="st2" d="M378.6 640L201.5 538.3c-12.4-7.1-21.4-22.6-21.4-36.8V298.3c0-14.2 9-29.7 21.4-36.8l177.1-101.7
				c12.1-6.9 30.8-6.9 42.8 0l177.2 101.7c12.4 7.1 21.3 22.6 21.3 36.8v203.3c0 14.2-8.9 29.7-21.3 36.8L421.4 640
				C409 647.1 391.1 647.1 378.6 640L378.6 640z M383.3 167.8L206.2 269.4c-9.5 5.5-16.7 17.9-16.7 28.8v203.3
				c0 11 7.2 23.3 16.7 28.7L383.3 632c9.2 5.3 24.2 5.3 33.5 0l177.2-101.7c9.5-5.4 16.7-17.8 16.7-28.7V298.3
				c0-11-7.2-23.3-16.7-28.8L416.7 167.8C407.2 162.4 392.8 162.4 383.3 167.8L383.3 167.8z" fill="url(#o-68b27b97571642b48733d5b3b52433b6)" transform="matrix(-0.6221763491630554, 0, 0, -0.6221763491630554, 497.7410583496094, 504.8393859863281)" data-uid="o-6de951e3330c4b03b0ad37e0ab4a8162"></path><path class="st1" d="M546.3 384.5l-33.4 31.1c-2.1 2-4.9 3-7.6 3H340.2c-12.1 30.1-57.7 21.6-57.7-11.1c0-32.6 45.6-41.1 57.7-11
				h160.7l33.4-31.2c2-1.9 4.8-2.9 7.6-2.9H592v-50.7c0-12.1-8.7-26.9-19.2-33.1l-153.6-88.1c-10.6-6-27.9-6-38.4 0l-153.5 88.1
				c-10.6 6.1-19.2 21-19.2 33.1v20.4h50.1l33.5-31.2c2-1.9 4.8-2.9 7.5-2.9h165.1c12.1-30.1 57.7-21.6 57.7 11
				c0 32.6-45.6 41.1-57.7 11.1H303.6l-33.5 31.1c-2 2-4.8 3-7.5 3h-54.6v91.5h54.6c2.8 0 5.5 1 7.5 2.9l33.5 31.2h160.6
				c12.1-30.1 57.7-21.5 57.7 11.1c0 32.6-45.6 41.1-57.7 11H299.1c-2.8 0-5.5-1-7.5-2.9l-33.5-31.2h-50.1v20.4
				c0 12.1 8.7 26.9 19.2 33l153.5 88.2c10.6 6 27.9 6 38.4 0l153.6-88.2c10.5-6 19.2-20.9 19.2-33V384.5H546.3z" fill="rgba(16, 109, 105, 1)" transform="matrix(0.6221763491630554, 0, 0, 0.6221763491630554, 0, 7.1294660568237305)" data-uid="o-baafe68b06b740c1ad1934dad2ce498a"></path><path class="st2" d="M518.9 422c-3.7 3.5-8.6 5.4-13.6 5.4H359.5c8.3 7.4 37.2 36.6 43.3 43.6h56c20-33.2 72.1-19.3 72.1 19.8
				c0 39.1-52.1 52.9-72.1 19.8h-24.3c13.5 18.7 25.8 38.3 36.7 58.6l97.2-55.7c7.9-4.5 14.7-16.4 14.7-25.4v-94.8h-33.3L518.9 422z
				" fill="url(#o-d7f7ee34f8ac4d1b956c51247fe6a9b1)" transform="matrix(0.6221763491630554, 0, 0, 0.6221763491630554, 0, 7.1294660568237305)" data-uid="o-93c6b73e80cb4cf0826bc70ea56ebfc7"></path><path class="st2" d="M568.3 286.4l-153.5-88.1c-7.9-4.5-21.8-4.5-29.6 0l-153.5 88.1c-14.4 8.3-14.8 22.9-14.8 37h37.8l30.8-28.8
				c3.7-3.5 8.6-5.4 13.6-5.4h159.6c20-33.2 72.1-19.3 72.1 19.8c0 39.1-52.1 53-72.1 19.8H307l-30.8 28.7c-2.3 2.1-5 3.7-7.9 4.6
				c7.6 4.3 15.1 8.8 22.6 13.5c17-10.9 42.3-8.7 54.8 12.2h151.7l30.8-28.8c3.7-3.5 8.6-5.4 13.7-5.4h41.2v-41.9
				C583.1 302.8 576.2 290.9 568.3 286.4z" fill="url(#o-68b27b97571642b48733d5b3b52433b6)" transform="matrix(0.6221763491630554, 0, 0, 0.6221763491630554, 0, 7.1294660568237305)" data-uid="o-f14794d0127b4e77b880a85a834aafc7"></path><path class="st1" d="M492 507.4c-9.2 0-16.6-7.5-16.6-16.5c0-9.2 7.4-16.5 16.6-16.5c9.1 0 16.6 7.4 16.6 16.5
				C508.7 499.9 501.1 507.4 492 507.4L492 507.4z" fill="#106d69" transform="matrix(0.6221763491630554, 0, 0, 0.6221763491630554, 0, 7.1294660568237305)" data-uid="o-876b8b566e004dfb89de022a2d3ea150"></path><path class="st1" d="M312.5 424.1c-9.1 0-16.6-7.4-16.6-16.5c0-9.1 7.5-16.4 16.6-16.4c9.2 0 16.6 7.4 16.6 16.4
				C329.1 416.7 321.7 424.1 312.5 424.1L312.5 424.1z" fill="#106d69" transform="matrix(0.6221763491630554, 0, 0, 0.6221763491630554, 0, 7.1294660568237305)" data-uid="o-38fb8a40238948ada92ef6eb3284f00b"></path><path class="st1" d="M492 325.6c-9.2 0-16.6-7.4-16.6-16.5c0-9.1 7.4-16.5 16.6-16.5c9.1 0 16.6 7.5 16.6 16.5
				C508.7 318.2 501.1 325.6 492 325.6L492 325.6z" fill="#106d69" transform="matrix(0.6221763491630554, 0, 0, 0.6221763491630554, 0, 7.1294660568237305)" data-uid="o-b7715fa7de934eb1a61d26ddb3e0d65a"></path></g><path text="ilgiz" fill="#0f4745" space="preserve" text-anchor="middle" offset="0.5" font-scale="contain" font-size="48" font-family="Lexend" transform="matrix(2.2108795842088353, 0, 0, 2.2108795842088353, 255.7877540755608, 375.371503542941)" font-style="normal" font-weight="900" letter-spacing="-2" data-fl-textpath="" data-uid="o-72dfb4ba7fe74c4b8b26ec75ea155796" d="M-38.336 0L-48.08 0L-48.08-25.68L-38.336-25.68L-38.336 0ZM-43.184-30.336L-43.184-30.336Q-45.776-30.336 -47.24-31.536Q-48.704-32.736 -48.704-34.944L-48.704-34.944Q-48.704-36.96 -47.216-38.256Q-45.728-39.552 -43.184-39.552L-43.184-39.552Q-40.592-39.552 -39.128-38.352Q-37.664-37.152 -37.664-34.944L-37.664-34.944Q-37.664-32.928 -39.152-31.632Q-40.64-30.336 -43.184-30.336ZM-23.68 0L-33.424 0L-33.424-35.52L-23.68-35.52L-23.68 0ZM-7.488 11.04L-7.488 11.04Q-10.944 11.04 -14.328 10.08Q-17.712 9.12 -19.872 7.584L-19.872 7.584L-16.56 1.056Q-15.504 1.728 -14.352 2.208Q-13.2 2.688 -11.928 2.928Q-10.656 3.168 -9.216 3.168L-9.216 3.168Q-6.96 3.168 -5.568 2.568Q-4.176 1.968 -3.528 0.672Q-2.88-0.624 -2.88-2.64L-2.88-2.64L-2.88-6.48L-0.72-6.288Q-1.104-4.656 -2.4-3.408Q-3.696-2.16 -5.616-1.44Q-7.536-0.72 -9.696-0.72L-9.696-0.72Q-13.104-0.72 -15.72-2.256Q-18.336-3.792 -19.848-6.552Q-21.36-9.312 -21.36-13.056L-21.36-13.056Q-21.36-16.944 -19.872-19.896Q-18.384-22.848 -15.816-24.528Q-13.248-26.208 -9.936-26.208L-9.936-26.208Q-8.496-26.208 -7.2-25.92Q-5.904-25.632 -4.8-25.128Q-3.696-24.624 -2.832-23.904Q-1.968-23.184 -1.416-22.32Q-0.864-21.456 -0.672-20.448L-0.672-20.448L-2.64-20.016L-2.112-25.68L 6.912-25.68L 6.912-2.496Q 6.912 0.72  5.928 3.24Q 4.944 5.76  3.072 7.512Q 1.2 9.264 -1.464 10.152Q-4.128 11.04 -7.488 11.04ZM-7.248-7.68L-7.248-7.68Q-5.76-7.68 -4.728-8.304Q-3.696-8.928 -3.168-10.104Q-2.64-11.28 -2.64-12.96L-2.64-12.96Q-2.64-14.64 -3.168-15.84Q-3.696-17.04 -4.728-17.664Q-5.76-18.288 -7.248-18.288L-7.248-18.288Q-8.736-18.288 -9.744-17.664Q-10.752-17.04 -11.28-15.84Q-11.808-14.64 -11.808-12.96L-11.808-12.96Q-11.808-11.28 -11.28-10.104Q-10.752-8.928 -9.744-8.304Q-8.736-7.68 -7.248-7.68ZM 21.28 0L 11.536 0L 11.536-25.68L 21.28-25.68L 21.28 0ZM 16.432-30.336L 16.432-30.336Q 13.84-30.336  12.376-31.536Q 10.912-32.736  10.912-34.944L 10.912-34.944Q 10.912-36.96  12.4-38.256Q 13.888-39.552  16.432-39.552L 16.432-39.552Q 19.024-39.552  20.488-38.352Q 21.952-37.152  21.952-34.944L 21.952-34.944Q 21.952-32.928  20.464-31.632Q 18.976-30.336  16.432-30.336ZM 48.896 0L 25.232 0L 25.232-4.608L 39.2-21.984L 39.2-18L 25.232-18L 25.232-25.68L 48.416-25.68L 48.416-20.688L 35.6-4.032L 35.408-7.68L 48.896-7.68L 48.896 0Z"></path><path text="87" fill="#0f4745" space="preserve" text-anchor="middle" offset="0.5" font-scale="contain" font-size="48" font-family="Lexend" transform="matrix(2.2108795842088353, 0, 0, 2.2108795842088353, 256.58590354796434, 463.68162267950476)" font-style="normal" font-weight="900" letter-spacing="-2" data-fl-textpath="" data-uid="o-46f88a278a3b4d01ad8179319b944c49" d="M-12.488 0.144L-12.488 0.144Q-16.184 0.144 -19.184-1.176Q-22.184-2.496 -23.96-4.8Q-25.736-7.104 -25.736-10.032L-25.736-10.032Q-25.736-12.192 -25.184-13.848Q-24.632-15.504 -23.552-16.704Q-22.472-17.904 -20.912-18.696Q-19.352-19.488 -17.336-19.92L-17.336-19.92L-18.104-17.28Q-19.544-17.856 -20.72-18.672Q-21.896-19.488 -22.712-20.52Q-23.528-21.552 -23.984-22.776Q-24.44-24 -24.44-25.392L-24.44-25.392Q-24.44-28.128 -22.832-30.192Q-21.224-32.256 -18.512-33.408Q-15.8-34.56 -12.488-34.56L-12.488-34.56Q-9.176-34.56 -6.464-33.408Q-3.752-32.256 -2.144-30.192Q-0.536-28.128 -0.536-25.392L-0.536-25.392Q-0.536-24 -0.944-22.8Q-1.352-21.6 -2.168-20.592Q-2.984-19.584 -4.16-18.744Q-5.336-17.904 -6.92-17.28L-6.92-17.28L-7.544-19.728Q-5.72-19.392 -4.184-18.672Q-2.648-17.952 -1.544-16.776Q-0.44-15.6  0.184-13.92Q 0.808-12.24  0.808-10.032L 0.808-10.032Q 0.808-7.056 -0.968-4.752Q-2.744-2.448 -5.768-1.152Q-8.792 0.144 -12.488 0.144ZM-12.488-7.488L-12.488-7.488Q-11.48-7.488 -10.664-7.896Q-9.848-8.304 -9.368-9.048Q-8.888-9.792 -8.888-10.8L-8.888-10.8Q-8.888-11.76 -9.344-12.504Q-9.8-13.248 -10.616-13.68Q-11.432-14.112 -12.488-14.112L-12.488-14.112Q-13.496-14.112 -14.312-13.68Q-15.128-13.248 -15.608-12.504Q-16.088-11.76 -16.088-10.8L-16.088-10.8Q-16.088-9.84 -15.608-9.096Q-15.128-8.352 -14.312-7.92Q-13.496-7.488 -12.488-7.488ZM-12.488-21.936L-12.488-21.936Q-11.576-21.936 -10.856-22.32Q-10.136-22.704 -9.728-23.352Q-9.32-24 -9.32-24.864L-9.32-24.864Q-9.32-25.728 -9.728-26.4Q-10.136-27.072 -10.856-27.48Q-11.576-27.888 -12.488-27.888L-12.488-27.888Q-13.4-27.888 -14.12-27.48Q-14.84-27.072 -15.248-26.4Q-15.656-25.728 -15.656-24.864L-15.656-24.864Q-15.656-24 -15.248-23.352Q-14.84-22.704 -14.12-22.32Q-13.4-21.936 -12.488-21.936ZM 13.4 0L 3.32 0L 16.376-30.816L 19.928-25.248L 1.928-25.248L 1.928-34.08L 24.68-34.08L 25.496-29.76L 13.4 0Z"></path></svg>