<svg xmlns="http://www.w3.org/2000/svg" width="512" height="512" viewBox="0 0 512 512" style="overflow: visible;"><rect data-uid="o-ac5e2482c7eb4c248e89fd0dc0054387" data-fl-background="" x="0" y="0" width="512" height="512" fill="#efedde"></rect><g transform="matrix(4.00407416227798, 0, 0, 4.00407416227798, 127.86962644911253, 48)" data-uid="o-694f887a44e247f7bc071fe9615208f4"><path fill="#FFF" d="M54.8 17.6H9.2c-2.8 0-5 2.2-5 5v33.6h55.6V22.6c0-2.8-2.2-5-5-5z" transform="matrix(1, 0, 0, 1, 0, 0)" data-uid="o-49b333a2b63240abbe92bdec040ede24"></path><path fill="#193651" d="M59.8 57.2H4.2c-.6 0-1-.4-1-1V22.6c0-3.3 2.7-6 6-6h45.6c3.3 0 6 2.7 6 6v33.6c0 .6-.5 1-1 1zm-54.6-2h53.6V22.6c0-2.2-1.8-4-4-4H9.2c-2.2 0-4 1.8-4 4v32.6z" transform="matrix(1, 0, 0, 1, 0, 0)" data-uid="o-dcf1f25d5e0a44c58d9d38245317299e"></path><path fill="#E1E6E9" d="M8.2 21.6h47.6v34.6H8.2z" transform="matrix(1, 0, 0, 1, 0, 0)" data-uid="o-4fa113c6d45a48b285420b1fa530dd6d"></path><path fill="#FFF" d="M63 53.4V59l-5 4H6l-5-4v-5.6h23.4v2.8h15.2v-2.8z" transform="matrix(1, 0, 0, 1, 0, 0)" data-uid="o-c7d36b7b024c46b982d1edf518f31ce8"></path><path fill="#193651" d="M58 64H6c-.2 0-.4-.1-.6-.2l-5-4c-.3-.2-.4-.5-.4-.8v-5.6c0-.6.4-1 1-1h23.4c.6 0 1 .4 1 1v1.8h13.1v-1.8c0-.6.4-1 1-1H63c.6 0 1 .4 1 1V59c0 .3-.1.6-.4.8l-5 4c-.2.1-.4.2-.6.2zM6.3 62h51.3l4.3-3.5v-4.2H40.6v1.8c0 .6-.4 1-1 1H24.4c-.6 0-1-.4-1-1v-1.8H2v4.2L6.3 62z" transform="matrix(1, 0, 0, 1, 0, 0)" data-uid="o-2a5d09ceee3a459d903048901dc2bf8d"></path><path fill="#193651" d="M43.7 57.2h2v2h-2zM49.5 57.2h2v2h-2zM55.3 57.2h2v2h-2z" transform="matrix(1, 0, 0, 1, 0, 0)" data-uid="o-3ea7660d1d8848c29c1624262a3d9543"></path><path fill="#193651" d="M6.7 57.2h2v2h-2zM12.5 57.2h2v2h-2zM18.3 57.2h2v2h-2z" transform="matrix(1, 0, 0, 1, 0, 0)" data-uid="o-b6e445acd1aa4402afe4c55966b03f65"></path><path fill="rgba(68,223,142,1)" d="M46.6 1H18c-2.5 0-4.5 2-4.5 4.5V23c0 2.5 2 4.5 4.5 4.5h3.1v8.8L37 27.4h9.6c2.5 0 4.5-2 4.5-4.5V5.5c0-2.5-2-4.5-4.5-4.5z" transform="matrix(1, 0, 0, 1, 0, 0)" data-uid="o-df5060e0e5b14eb589cdb4d2c0e251ce"></path><path fill="#193651" d="M20.6 37.1c-.3-.2-.5-.5-.5-.9v-7.8H18c-3 0-5.5-2.5-5.5-5.5V5.5C12.5 2.5 15 0 18 0h28.7c3 0 5.5 2.5 5.5 5.5V23c0 3-2.5 5.5-5.5 5.5h-9.3l-15.7 8.7c-.4.1-.8.1-1.1-.1zM18 2c-1.9 0-3.5 1.6-3.5 3.5V23c0 1.9 1.6 3.5 3.5 3.5h3.1c.6 0 1 .4 1 1v7.1l14.5-8c.1-.1.3-.1.5-.1h9.6c1.9 0 3.5-1.6 3.5-3.5V5.5c0-1.9-1.6-3.5-3.5-3.5H18z" transform="matrix(1, 0, 0, 1, 0, 0)" data-uid="o-9fbaa2518f6549bf98b28af816093a32"></path><path fill="#FFF" d="M24.1 24.4H18c-.8 0-1.5-.7-1.5-1.5V5.5c0-.8.7-1.5 1.5-1.5h28.7c.8 0 1.5.7 1.5 1.5V23c0 .8-.7 1.5-1.5 1.5H36.3l-12.2 6.7v-6.8z" transform="matrix(1, 0, 0, 1, 0, 0)" data-uid="o-b3c7b17614774f829bb43b17931562ac"></path><path fill="#F16050" d="M37.2 11.4h-2.9V8.5h-4v2.9h-2.9v4h2.9v3h4v-3h2.9z" transform="matrix(1, 0, 0, 1, 0, 0)" data-uid="o-35e17eab7e0a4332a28755a1f8805572"></path><path fill="#F16050" d="M37.2 11.4h-2.9V8.5h-4v2.9h-2.9v4h2.9v3h4v-3h2.9z" transform="matrix(1, 0, 0, 1, 0, 0)" data-uid="o-68ab8ea6352b44a78e06f97c2e9d5281"></path></g><path text="ilgiz" fill="#193651" space="preserve" text-anchor="middle" offset="0.5" font-scale="contain" font-size="48" font-family="Oxanium" transform="matrix(2.081589703983521, 0, 0, 2.081589703983521, 252.9999127491329, 394.9788706763539)" data-fl-textpath="" font-weight="700" font-style="normal" data-uid="o-ecb74337f77c47d4910cdd8ac494d541" d="M-37.152-29.52L-44.064-29.52L-44.064-36L-37.152-36L-37.152-29.52ZM-37.296 0L-43.92 0L-43.92-25.344L-37.296-25.344L-37.296 0ZM-30.576-9.216L-30.576-9.216L-30.576-35.52L-23.952-35.52L-23.952-8.544Q-23.952-5.568 -20.88-5.232L-20.88-5.232L-20.88 0.48Q-30.576 0.48 -30.576-9.216ZM-16.08-7.776L-16.08-7.776L-16.08-17.568Q-16.08-25.344 -8.304-25.344L-8.304-25.344L 5.712-25.344L 5.712 1.824Q 5.712 9.6 -2.064 9.6L-2.064 9.6L-11.04 9.6L-13.92 7.44L-13.92 3.84L-2.448 3.84Q-0.912 3.84 -0.912 2.304L-0.912 2.304L-0.912 0L-8.304 0Q-16.08 0 -16.08-7.776ZM-9.456-18.048L-9.456-7.296Q-9.456-5.76 -7.92-5.76L-7.92-5.76L-0.912-5.76L-0.912-19.584L-7.92-19.584Q-9.456-19.584 -9.456-18.048L-9.456-18.048ZM 19.2-29.52L 12.288-29.52L 12.288-36L 19.2-36L 19.2-29.52ZM 19.056 0L 12.432 0L 12.432-25.344L 19.056-25.344L 19.056 0ZM 45.36 0L 24.528 0L 24.528-4.992L 36.384-19.584L 25.008-19.584L 25.008-25.344L 44.88-25.344L 44.88-20.352L 33.072-5.76L 45.36-5.76L 45.36 0Z"></path><path text="87" fill="#193651" space="preserve" text-anchor="middle" offset="0.5" font-scale="contain" font-size="48" font-family="Oxanium" transform="matrix(1.4806124879087197, 0, 0, 1.4806124879087197, 255.3603740519494, 464)" font-weight="700" font-style="normal" data-fl-textpath="" data-uid="o-67ddfd272d9c4f86ba6e2b23c50f56b6" d="M-25.248-8.064L-25.248-8.064L-25.248-12.336Q-25.248-14.256 -24.048-15.456L-24.048-15.456L-22.368-17.136L-24.048-18.816Q-25.248-20.016 -25.248-21.936L-25.248-21.936L-25.248-25.056Q-25.248-33.12 -17.184-33.12L-17.184-33.12L-10.56-33.12Q-2.496-33.12 -2.496-25.056L-2.496-25.056L-2.496-21.936Q-2.496-20.016 -3.696-18.816L-3.696-18.816L-5.376-17.136L-3.696-15.456Q-2.496-14.256 -2.496-12.336L-2.496-12.336L-2.496-8.064Q-2.496 0 -10.56 0L-10.56 0L-17.184 0Q-25.248 0 -25.248-8.064ZM-18.336-12.48L-18.336-7.68Q-18.336-6.24 -16.896-6.24L-16.896-6.24L-10.848-6.24Q-9.408-6.24 -9.408-7.68L-9.408-7.68L-9.408-12.48Q-9.408-13.92 -10.848-13.92L-10.848-13.92L-16.896-13.92Q-18.336-13.92 -18.336-12.48L-18.336-12.48ZM-18.336-25.44L-18.336-21.6Q-18.336-20.16 -16.896-20.16L-16.896-20.16L-10.848-20.16Q-9.408-20.16 -9.408-21.6L-9.408-21.6L-9.408-25.44Q-9.408-26.88 -10.848-26.88L-10.848-26.88L-16.896-26.88Q-18.336-26.88 -18.336-25.44L-18.336-25.44ZM 18.336-26.88L 2.496-26.88L 2.496-33.12L 25.248-33.12L 25.248-22.8L 13.296 0L 7.104 0L 6.288-1.44L 18.336-24.24L 18.336-26.88Z"></path></svg>