<svg xmlns="http://www.w3.org/2000/svg" width="512" height="512" viewBox="0 0 512 512" style="overflow: visible;"><rect data-uid="o-c53c4685c1004c3587af7784dc69ea83" data-fl-background="" x="0" y="0" width="512" height="512" fill="#2277c3"></rect><g data-icon="" transform="matrix(0.4267725761402789, 0, 0, 0.4267725761402789, 146.74663890619064, 48)" data-uid="o-e8dae40c9da14736ae97f593ccff7a4e"><path d="M400.177 65.132C331.343 1.933 257.951 7.95 256.258 7.948c-0.084 0-0.167-0.003-0.251-0.003
	c-0.003 0-0.005 0-0.008 0c-0.003 0-0.005 0-0.008 0c-2.401 0.001-10.6 0.265-10.6 0.265c-49.629 2.457-97.331 22.803-133.57 56.922
	l0 0C93.172 84.953 45.62 138.803 45.62 218.324c0 60.388 25.451 114.824 66.202 153.192c18.884-17.779 41.054-32.106 65.502-41.974
	c24.303-9.81 50.857-15.213 78.675-15.213s54.372 5.404 78.675 15.213c24.448 9.868 46.618 24.195 65.502 41.974
	c40.751-38.368 66.202-92.804 66.202-153.192C466.38 138.8 415.606 78.402 400.177 65.132z" fill="#49D5FF" data-uid="o-1ed5601158154d7fa540def47e479246"></path><path d="M163.323 218.324H45.62c0 60.388 25.451 114.824 66.202 153.192
	c18.884-17.78 41.054-32.106 65.502-41.974C168.454 297.274 163.323 259.162 163.323 218.324z" fill="#2BB7FF" data-uid="o-796e284f94ea41cf973db35eddfd7f32"></path><path d="M177.326 107.106c-24.448-9.868-46.618-24.195-65.502-41.974
	C93.172 84.953 45.62 138.803 45.62 218.324h117.702C163.323 177.486 168.454 139.374 177.326 107.106z" fill="#49D5FF" data-uid="o-3bc03822f926495b9f90b7c6eec77eda"></path><path d="M466.38 218.324H348.678c0 40.838-5.132 78.95-14.003 111.218
	c24.448 9.868 46.618 24.195 65.502 41.974C440.928 333.149 466.38 278.712 466.38 218.324z" fill="#2B84E9" data-uid="o-94f513cb6ccd4bc296fd2124134a4eb6"></path><path d="M334.675 107.106c8.871 32.268 14.003 70.38 14.003 111.218H466.38
	c0-79.524-50.774-139.922-66.202-153.192C381.293 82.912 359.123 97.238 334.675 107.106z" fill="#2B96F5" data-uid="o-a67b970f9c7843098c3b631c905beafe"></path><path d="M334.675 107.106c24.448-9.868 46.618-24.195 65.502-41.974
	C331.343 1.933 257.951 7.95 256.258 7.948c-0.084 0-0.167-0.003-0.251-0.003C289.199 7.951 318.309 47.572 334.675 107.106z" fill="#2BB7FF" data-uid="o-460c48cda6344809b69a6dcd2deceaac"></path><path d="M245.393 8.21c-49.629 2.457-97.331 22.803-133.57 56.922c18.998 17.887 41.303 32.206 65.502 41.974
	c10.911-39.688 47.5-98.362 75.891-99.069" fill="#5FE8FF" data-uid="o-fbf39a070b504e94a249e25f937a26b5"></path><path d="M177.326 329.542c24.303-9.81 50.857-15.213 78.675-15.213s54.372 5.404 78.675 15.213
	c8.871-32.268 14.003-70.38 14.003-111.218H163.323C163.323 259.162 168.454 297.274 177.326 329.542z" fill="#2B96F5" data-uid="o-b2e9bf93b0614f0ca552f5d34c42e989"></path><path d="M256 122.32c-27.818 0-54.372-5.404-78.675-15.213c-8.871 32.268-14.003 70.38-14.003 111.218
	h185.356c0-40.838-5.131-78.95-14.003-111.218C310.372 116.916 283.818 122.32 256 122.32z" fill="#2BB7FF" data-uid="o-5d780a475d2d4322b45e782d918584a2"></path><path d="M334.675 107.106C318.308 47.572 289.199 7.95 256.007 7.944c-0.003 0-0.005 0-0.008 0
	c-0.003 0-0.005 0-0.008 0c-33.191 0.006-62.301 39.628-78.668 99.162c24.303 9.81 50.857 15.213 78.675 15.213
	S310.372 116.916 334.675 107.106z" fill="#49D5FF" data-uid="o-d0923ddf8cd54e33b2a053e0f40d8074"></path><path fill="#363C44" data-type="polygon" d="M312.686 284.152L199.314 284.152L207.471 308.444L249.992 332.412L301.123 316.428Z" data-uid="o-201e12d4671f4a3f93d469867ca9b136"></path><path d="M256 432.468h56.678c11.008 0 21.418 5.009 28.286 13.612l45.117 56.506
	c1.309 1.64 3.616 2.084 5.441 1.048l0 0c25.176-14.297 37.66-43.683 30.473-71.729L395.62 328.98
	c-4.907-19.15-18.868-34.69-37.384-41.613l-22.172-8.29c-8.114-3.034-17.253-1.05-23.378 5.076l-22.106 22.106
	c-4.033 4.033-9.503 6.299-15.207 6.299H256h-19.373c-5.704 0-11.174-2.266-15.207-6.299l-22.106-22.106
	c-6.126-6.126-15.264-8.11-23.378-5.076l-22.172 8.29c-18.516 6.923-32.477 22.464-37.384 41.613L90.005 431.905
	c-7.187 28.046 5.297 57.431 30.473 71.729l0 0c1.825 1.036 4.132 0.592 5.441-1.048l45.117-56.506
	c6.868-8.602 17.278-13.612 28.286-13.612H256z" fill="#555E6B" data-uid="o-33d9864d369642ee9f412bcdf712f4eb"></path><path d="M139.632 446.079l-35.435 44.38c4.576 5.152 10.037 9.628 16.282 13.174l0 0
		c1.825 1.036 4.132 0.592 5.441-1.048l45.117-56.506c6.869-8.602 17.278-13.612 28.286-13.612h-31.405
		C156.91 432.468 146.501 437.477 139.632 446.079z" fill="#414954" data-uid="o-535af7acc1f94b88bf6a08ebdecca6c8"></path><path d="M421.995 431.905L395.62 328.98c-4.907-19.15-18.868-34.69-37.384-41.613l-22.172-8.29
		c-7.423-2.776-15.696-1.34-21.743 3.613l12.51 4.678c18.516 6.923 32.477 22.464 37.384 41.613l26.374 102.925
		c5.404 21.09-0.317 42.935-14.191 58.554l9.682 12.126c1.309 1.64 3.616 2.084 5.441 1.048l0 0
		C416.698 489.336 429.182 459.951 421.995 431.905z" fill="#414954" data-uid="o-72e5aaf47a0943c293356cc058f3d5fb"></path><path fill="#414954" data-type="circle" data-cx="172.001" data-cy="333.06" data-r="19.231" d="M172.001,333.06m-19.231,0a19.231,19.231 0 1, 0 38.462,0a19.231,19.231 0 1, 0 -38.462,0" data-uid="o-99694f5a34394631ab39d2f6705302f6"></path><path fill="#414954" data-type="circle" data-cx="304.79" data-cy="386.2" data-r="19.231" d="M304.79,386.2m-19.231,0a19.231,19.231 0 1, 0 38.462,0a19.231,19.231 0 1, 0 -38.462,0" data-uid="o-80e1ad5fd86b4adbb67dae4812ac902c"></path><path fill="#414954" data-type="circle" data-cx="302.57" data-cy="382.64" data-r="11.36" d="M302.57,382.64m-11.36,0a11.36,11.36 0 1, 0 22.72,0a11.36,11.36 0 1, 0 -22.72,0" data-uid="o-61a6eb763d4642949369bf871296e9a3"></path><path fill="#414954" data-type="circle" data-cx="343.66" data-cy="316.03" data-r="8.07" d="M343.66,316.03m-8.07,0a8.07,8.07 0 1, 0 16.14,0a8.07,8.07 0 1, 0 -16.14,0" data-uid="o-a666ee73b40249ce8abd8e5bf061a311"></path><path fill="#414954" data-type="circle" data-cx="343.66" data-cy="358.9" data-r="8.07" d="M343.66,358.9m-8.07,0a8.07,8.07 0 1, 0 16.14,0a8.07,8.07 0 1, 0 -16.14,0" data-uid="o-d6eb7654f7aa402e9e8a5f766ba4d411"></path><path fill="#414954" data-type="circle" data-cx="320.6" data-cy="337.79" data-r="8.07" d="M320.6,337.79m-8.07,0a8.07,8.07 0 1, 0 16.14,0a8.07,8.07 0 1, 0 -16.14,0" data-uid="o-67c0472cda8346649e5bbb096e787b27"></path><path fill="#414954" data-type="circle" data-cx="366.72" data-cy="337.79" data-r="8.07" d="M366.72,337.79m-8.07,0a8.07,8.07 0 1, 0 16.14,0a8.07,8.07 0 1, 0 -16.14,0" data-uid="o-0ce2cb7471434b1890b56cd064e75e2e"></path><path d="M233.811 378.132h-11.157v-11.158c0-4.459-3.615-8.073-8.073-8.073s-8.073 3.615-8.073 8.073v11.158
		H195.35c-4.459 0-8.073 3.615-8.073 8.073c0 4.459 3.615 8.073 8.073 8.073h11.158v11.157c0 4.459 3.615 8.073 8.073 8.073
		s8.073-3.615 8.073-8.073v-11.157h11.157c4.459 0 8.073-3.615 8.073-8.073C241.885 381.746 238.27 378.132 233.811 378.132z" fill="#414954" data-uid="o-2f75f971e1394719bdb7532a56011f6e"></path><path fill="#FFD82F" data-type="circle" data-cx="172.001" data-cy="327.68" data-r="19.231" d="M172.001,327.68m-19.231,0a19.231,19.231 0 1, 0 38.462,0a19.231,19.231 0 1, 0 -38.462,0" data-uid="o-7602303135fb4f928c9163705bb7cdd8"></path><path fill="#2E343A" data-type="circle" data-cx="304.79" data-cy="380.82" data-r="19.231" d="M304.79,380.82m-19.231,0a19.231,19.231 0 1, 0 38.462,0a19.231,19.231 0 1, 0 -38.462,0" data-uid="o-ad1aefe3d81146b283588a3c38f02853"></path><path fill="#6E7A89" data-type="circle" data-cx="302.57" data-cy="377.26" data-r="11.36" d="M302.57,377.26m-11.36,0a11.36,11.36 0 1, 0 22.72,0a11.36,11.36 0 1, 0 -22.72,0" data-uid="o-d8f4c341e3ef42c48e843ad006c1faa7"></path><path d="M233.811 372.749h-11.157v-11.158c0-4.459-3.615-8.073-8.073-8.073s-8.073 3.615-8.073 8.073v11.158
	H195.35c-4.459 0-8.073 3.615-8.073 8.073c0 4.459 3.615 8.073 8.073 8.073h11.158v11.157c0 4.459 3.615 8.073 8.073 8.073
	s8.073-3.615 8.073-8.073v-11.157h11.157c4.459 0 8.073-3.615 8.073-8.073C241.885 376.364 238.27 372.749 233.811 372.749z" fill="#49BC6E" data-uid="o-c0f0b40334f74873b2ed41caa5d22d01"></path><path d="M406.33 60.2c-0.15-0.192-0.307-0.381-0.478-0.561c-0.409-0.434-0.858-0.805-1.332-1.123C365.543 22.233 313.323 0 256 0
	S146.456 22.233 107.48 58.515c-0.474 0.319-0.924 0.69-1.332 1.123c-0.17 0.181-0.327 0.369-0.476 0.56
	C63.9 99.968 37.826 156.083 37.826 218.174c0 44.615 13.377 87.515 38.684 124.062c1.513 2.186 3.944 3.358 6.415 3.358
	c1.53 0 3.077-0.451 4.43-1.387c3.539-2.451 4.421-7.306 1.971-10.845c-22.016-31.794-34.305-68.774-35.764-107.394h102.031
	c0.274 17.354 1.476 34.469 3.563 51.06l-8.123 3.037c-20.891 7.812-36.668 25.374-42.204 46.98L82.455 429.97
	c-8.039 31.37 6.014 64.448 34.174 80.44c1.887 1.072 3.943 1.589 5.975 1.589c3.556 0 7.037-1.584 9.406-4.552l45.117-56.506
	c5.42-6.787 13.51-10.68 22.195-10.68H256h56.678c8.686 0 16.776 3.893 22.196 10.68l45.117 56.505
	c2.37 2.968 5.85 4.553 9.406 4.553c2.031 0 4.088-0.518 5.974-1.589c28.16-15.991 42.213-49.07 34.174-80.44l-26.375-102.924
	c-5.536-21.605-21.313-39.167-42.204-46.981l-8.124-3.037c2.087-16.59 3.291-33.706 3.565-51.059h102.03
	c-1.458 38.6-13.736 75.564-35.732 107.348c-2.45 3.539-1.566 8.394 1.973 10.844c3.539 2.449 8.395 1.566 10.844-1.974
	c25.285-36.536 38.65-79.418 38.65-124.012C474.174 156.084 448.102 99.969 406.33 60.2z M458.421 210.38H356.404
	c-0.553-35.18-4.843-68.922-12.445-98.886c20.192-8.902 39.058-20.905 55.953-35.755
	C434.456 110.638 456.428 157.992 458.421 210.38z M200.978 106.813c-4.753-1.339-9.448-2.877-14.089-4.566
	C202.433 50.238 227.883 15.588 256 15.588c28.122 0 53.575 34.659 69.117 86.678c-21.917 7.948-45.249 12.108-69.117 12.108
	c-6.336 0-12.727-0.295-18.997-0.879c-4.29-0.387-8.084 2.751-8.483 7.039c-0.399 4.286 2.753 8.083 7.039 8.482
	c6.748 0.627 13.625 0.946 20.441 0.946c25.265 0 49.972-4.332 73.223-12.609c6.857 27.754 11.025 59.497 11.588 93.026H171.189
	c0.563-33.534 4.733-65.283 11.592-93.04c4.607 1.645 9.263 3.151 13.971 4.477c0.707 0.199 1.417 0.294 2.117 0.294
	c3.403 0 6.53-2.247 7.498-5.683C207.534 112.284 205.122 107.979 200.978 106.813z M172.285 96.294
	C154.687 88.28 138.221 77.72 123.53 65.02c25.184-21.812 55.787-37.517 89.483-44.827c-11.044 11.093-21.09 26.579-29.679 46.077
	C179.217 75.618 175.531 85.67 172.285 96.294z M328.666 66.271c-8.589-19.498-18.635-34.985-29.679-46.077
	c33.701 7.311 64.309 23.019 89.495 44.837c-14.817 12.83-31.233 23.328-48.757 31.288
	C336.477 85.686 332.787 75.625 328.666 66.271z M112.088 75.738c16.737 14.691 35.681 26.755 55.962 35.72
	c-7.608 29.974-11.901 63.729-12.454 98.922H53.579C55.572 157.992 77.544 110.638 112.088 75.738z M388.07 330.914l26.375 102.924
	c6.048 23.602-3.866 48.438-24.203 61.467l-43.188-54.09c-8.394-10.513-20.924-16.542-34.377-16.542H256h-56.678
	c-13.452 0-25.982 6.029-34.377 16.542l-43.188 54.09c-20.336-13.028-30.25-37.864-24.202-61.467l26.374-102.924
	c4.272-16.669 16.445-30.22 32.564-36.248l22.172-8.29c5.24-1.96 11.182-0.669 15.138 3.287l22.105 22.105
	c5.533 5.535 12.892 8.583 20.719 8.583H256h19.373c7.827 0 15.185-3.048 20.718-8.582l22.106-22.106
	c3.956-3.958 9.897-5.25 15.137-3.287l22.172 8.289C371.626 300.694 383.799 314.246 388.07 330.914z M337.827 271.454
	c-9.609-3.219-20.189-1.319-28.06 4.904h-46.58c-4.305 0-7.794 3.489-7.794 7.794s3.49 7.794 7.794 7.794h30.681l-8.801 8.801
	c-2.589 2.59-6.033 4.016-9.695 4.016H256h-19.373c-3.663 0-7.106-1.426-9.696-4.017l-8.8-8.8h10.07
	c4.305 0 7.794-3.489 7.794-7.794s-3.49-7.794-7.794-7.794h-25.969c-7.869-6.223-18.449-8.126-28.057-4.906
	c-1.734-14.813-2.743-30.047-2.995-45.484h169.64C340.568 241.404 339.563 256.641 337.827 271.454z" data-uid="o-a5cb3fdf21384b62818fc8bafc87b23a"></path><path d="M199.021 327.675c0-14.901-12.123-27.025-27.025-27.025s-27.025 12.123-27.025 27.025s12.123 27.026 27.025 27.026
	S199.021 342.577 199.021 327.675z M171.995 339.112c-6.306 0-11.437-5.131-11.437-11.437s5.131-11.436 11.437-11.436
	s11.437 5.13 11.437 11.436S178.301 339.112 171.995 339.112z" data-uid="o-4b0af0c3165f47b4ae121d638369a6d9"></path><path d="M304.785 353.797c-14.902 0-27.025 12.123-27.025 27.026c0 14.901 12.123 27.025 27.025 27.025s27.025-12.123 27.025-27.025
	S319.688 353.797 304.785 353.797z M304.785 392.259c-6.306 0-11.437-5.13-11.437-11.436s5.131-11.437 11.437-11.437
	s11.437 5.131 11.437 11.437S311.092 392.259 304.785 392.259z" data-uid="o-018ef7c267984e9fbed48713edb44287"></path><path data-type="circle" data-cx="343.66" data-cy="310.64" data-r="8.07" d="M343.66,310.64m-8.07,0a8.07,8.07 0 1, 0 16.14,0a8.07,8.07 0 1, 0 -16.14,0" data-uid="o-b9203cfc05d44763b28b39846ab5300f"></path><path data-type="circle" data-cx="343.66" data-cy="353.52" data-r="8.07" d="M343.66,353.52m-8.07,0a8.07,8.07 0 1, 0 16.14,0a8.07,8.07 0 1, 0 -16.14,0" data-uid="o-b7cfd16ff6b649b4af40993f987745e2"></path><path data-type="circle" data-cx="320.6" data-cy="332.41" data-r="8.07" d="M320.6,332.41m-8.07,0a8.07,8.07 0 1, 0 16.14,0a8.07,8.07 0 1, 0 -16.14,0" data-uid="o-2e84c411cd81472784e5e5d3d23487f5"></path><path data-type="circle" data-cx="366.72" data-cy="332.41" data-r="8.07" d="M366.72,332.41m-8.07,0a8.07,8.07 0 1, 0 16.14,0a8.07,8.07 0 1, 0 -16.14,0" data-uid="o-3cea86a9f259456d846e5d62844b483f"></path><path d="M233.811 373.029h-11.437v-11.437c0-4.305-3.49-7.794-7.794-7.794s-7.794 3.489-7.794 7.794v11.437h-11.437
	c-4.305 0-7.794 3.489-7.794 7.794s3.49 7.794 7.794 7.794h11.437v11.436c0 4.305 3.49 7.794 7.794 7.794s7.794-3.489 7.794-7.794
	v-11.436h11.437c4.305 0 7.794-3.489 7.794-7.794S238.116 373.029 233.811 373.029z" data-uid="o-2fcfd05c0e7b4dba9d9c77b43a49c029"></path></g><path text-anchor="middle" offset="0.5" fill="#ffffff" space="preserve" font-scale="contain" font-size="48" font-family="Cherry Swash" text="ilgiz" font-style="normal" font-weight="700" data-fl-textpath="" transform="matrix(1.707086766771199, 0, 0, 1.707086766771199, 254.7725917431236, 365.6547208954959)" data-uid="o-70500df9143544099e052b1cfa991408" d="M-44.304-18.72L-48-18.72L-48-24L-38.064-24L-38.064-5.28L-33.888-5.28L-33.888 0L-48.048 0L-48.048-5.28L-44.304-5.28L-44.304-18.72ZM-41.184-26.352Q-42.672-26.352 -43.608-27.408Q-44.544-28.464 -44.544-29.952Q-44.544-31.44 -43.536-32.52Q-42.528-33.6 -41.016-33.6Q-39.504-33.6 -38.592-32.544Q-37.68-31.488 -37.68-30Q-37.68-28.512 -38.688-27.432Q-39.696-26.352 -41.184-26.352ZM-27.984-30.72L-31.68-30.72L-31.68-36L-21.744-36L-21.744-5.28L-17.568-5.28L-17.568 0L-31.728 0L-31.728-5.28L-27.984-5.28L-27.984-30.72ZM-11.52-9.888L-11.52-9.888Q-13.968-12.144 -13.968-15.864Q-13.968-19.584 -11.232-22.032Q-8.496-24.48 -3.648-24.48L-3.648-24.48Q-0.576-24.48  1.536-23.424L 1.536-23.424L 9.456-23.424L 9.456-17.808L 6.288-17.808Q 6.672-16.656  6.672-15.84L 6.672-15.84Q 6.672-12.096  3.936-9.648Q 1.2-7.2 -3.648-7.2L-3.648-7.2Q-5.424-7.2 -7.104-7.584L-7.104-7.584Q-7.488-7.536 -7.8-7.224Q-8.112-6.912 -8.112-6.48Q-8.112-6.048 -7.776-5.856L-7.776-5.856Q-7.248-5.472 -5.712-5.328L-5.712-5.328L 1.392-4.32Q 4.656-3.84  6.576-1.944Q 8.496-0.048  8.496 3.192Q 8.496 6.432  4.992 8.592Q 1.488 10.752 -3.888 10.752Q-9.264 10.752 -11.904 8.784Q-14.544 6.816 -14.544 3.792L-14.544 3.792Q-14.544 2.256 -13.872 0.936Q-13.2-0.384 -11.76-0.96L-11.76-0.96Q-14.352-2.016 -14.352-5.208Q-14.352-8.4 -11.52-9.888ZM-6.672-17.928Q-7.728-17.136 -7.728-15.84Q-7.728-14.544 -6.672-13.752Q-5.616-12.96 -3.648-12.96Q-1.68-12.96 -0.624-13.752Q 0.432-14.544  0.432-15.84Q 0.432-17.136 -0.624-17.928Q-1.68-18.72 -3.648-18.72Q-5.616-18.72 -6.672-17.928ZM-8.304 3.504L-8.304 3.504Q-8.304 4.992 -4.176 4.992L-4.176 4.992Q-1.344 4.992  0.456 4.464Q 2.256 3.936  2.256 2.88L 2.256 2.88Q 2.256 1.632  0.096 1.392L 0.096 1.392L-5.808 0.72Q-6.816 0.912 -7.56 1.728Q-8.304 2.544 -8.304 3.504ZM 15.12-18.72L 11.424-18.72L 11.424-24L 21.36-24L 21.36-5.28L 25.536-5.28L 25.536 0L 11.376 0L 11.376-5.28L 15.12-5.28L 15.12-18.72ZM 18.24-26.352Q 16.752-26.352  15.816-27.408Q 14.88-28.464  14.88-29.952Q 14.88-31.44  15.888-32.52Q 16.896-33.6  18.408-33.6Q 19.92-33.6  20.832-32.544Q 21.744-31.488  21.744-30Q 21.744-28.512  20.736-27.432Q 19.728-26.352  18.24-26.352ZM 42.096-9.072L 48.336-9.072L 48.336 0L 27.84 0L 27.84-5.76L 40.272-18.24L 34.656-18.24L 34.656-15.456L 28.416-15.456L 28.416-24L 48.672-24L 48.672-18.24L 36.336-5.76L 42.096-5.76L 42.096-9.072Z"></path><path text-anchor="middle" offset="0.5" fill="#ffffff" space="preserve" font-scale="contain" font-size="48" font-family="Cherry Swash" text="87" font-style="normal" font-weight="700" data-fl-textpath="" transform="matrix(1.707086766771199, 0, 0, 1.707086766771199, 259.07614979528677, 450.0701722436278)" data-uid="o-fe568b36cb5d448aa4ae63a68742a3d0" d="M-0.696-9.024L-0.696-9.024Q-0.696-4.992 -3.672-2.256Q-6.648 0.48 -12.312 0.48Q-17.976 0.48 -20.952-2.256Q-23.928-4.992 -23.928-9.072L-23.928-9.072Q-23.928-14.064 -18.6-17.904L-18.6-17.904Q-22.44-20.496 -22.44-24.816Q-22.44-29.136 -19.464-31.608Q-16.488-34.08 -12.312-34.08Q-8.136-34.08 -5.16-31.608Q-2.184-29.136 -2.184-25.056L-2.184-25.056Q-2.184-22.656 -3.24-20.928Q-4.296-19.2 -6.408-17.184L-6.408-17.184Q-3.672-15.696 -2.184-13.776Q-0.696-11.856 -0.696-9.024ZM-17.688-9.456L-17.688-9.456Q-17.688-5.28 -12.312-5.28Q-6.936-5.28 -6.936-9.072L-6.936-9.072Q-6.936-11.088 -8.664-12.36Q-10.392-13.632 -14.664-15.168L-14.664-15.168Q-17.688-13.056 -17.688-9.456ZM-8.424-24.624L-8.424-24.624Q-8.424-28.32 -12.264-28.32L-12.264-28.32Q-14.088-28.32 -15.144-27.432Q-16.2-26.544 -16.2-25.056Q-16.2-23.568 -15.648-22.608Q-15.096-21.648 -13.992-21.024L-13.992-21.024Q-12.312-20.16 -10.248-19.584L-10.248-19.584Q-8.424-21.936 -8.424-24.624ZM 14.136 8.16L 14.136 8.16L 8.136 8.16Q 8.136 3.984  9.288-0.24Q 10.44-4.464  11.904-7.44Q 13.368-10.416  15.288-14.376Q 17.208-18.336  18.168-21.072L 18.168-21.072L 8.472-21.072L 8.472-17.28L 2.952-17.28L 2.952-26.832L 24.168-26.832L 24.168-21.12Q 24.168-18.24  20.616-11.616L 20.616-11.616Q 19.128-8.88  17.664-5.856Q 16.2-2.832  15.168 0.888Q 14.136 4.608  14.136 8.16Z"></path></svg>