<svg xmlns="http://www.w3.org/2000/svg" width="512" height="512" viewBox="0 0 512 512" style="overflow: visible;"><rect data-uid="o-bec26566b1b34443a202210a0ab7ea8e" data-fl-background="" x="0" y="0" width="512" height="512" fill="#f5feff"></rect><g data-icon="" transform="matrix(0.38534462122272056, 0, 0, 0.38534462122272056, 123.137169744311, 50.13355975755627)" data-uid="o-9bbd6af5d41c4de199559429ceb92240"><path d="m166.304688 435.976562c-39.90625-15.035156-74.046876-41.921874-98.101563-76.34375-78.636719-112.488281-28.839844-267.78125 98.101563-315.605468 129.726562-48.914063 272.683593 40.921875 282.617187 181.019531 10.832031 153.144531-140.863281 264.378906-282.617187 210.929687zm0 0" fill="#30d9f6" transform="matrix(1.3333323001861572, 0, 0, 1.3333323001861572, 0, 0.00025333312805742025)" data-uid="o-044c987ffbf34f858c03931b8c3cdf04"></path><path d="m240 449.5625v-419.003906c105.3125.164062 200.832031 80.917968 208.921875 194.441406v.050781c8.953125 126.574219-93.105469 224.554688-208.921875 224.511719zm0 0" fill="#19c0ef" transform="matrix(1.3333323001861572, 0, 0, 1.3333323001861572, 0, 0.00025333312805742025)" data-uid="o-d30ceeccbe4e4203be71881599b4351e"></path><path d="m240 0c-132.648438 0-240 107.339844-240 240 0 132.648438 107.339844 240.003906 240 240.003906 132.984375 0 240-108.027344 240-240.003906 0-132.644531-107.339844-240-240-240zm126.6875 255h82.28125c-1.835938 26.933594-8.730469 52.183594-19.640625 75h-71.3125c4.765625-23.234375 7.824219-47.273438 8.671875-75zm-8.613281-105h71.171875c10.820312 22.695312 17.742187 47.902344 19.671875 75h-82.25c-.792969-25.046875-3.5625-50.5-8.59375-75zm53.625-30h-61.109375c-8.351563-28.125-20.132813-54.042969-35.839844-75.398438 38.734375 14.921876 72.773438 41.097657 96.949219 75.398438zm-92.667969 0h-64.03125v-87.207031c31.953125 11.792969 53.253906 54.871093 64.03125 87.207031zm-94.03125-87.234375v87.234375h-63.988281c15.300781-46.015625 38.738281-77.992188 63.988281-87.234375zm0 117.234375v75h-81.742188c.910157-26.910156 4.238282-52.164062 9.433594-75zm0 105v75h-72.355469c-5.308593-23.382812-8.507812-48.703125-9.386719-75zm0 105v87.210938c-31.949219-11.796876-53.253906-54.871094-64.03125-87.210938zm30 87.261719v-87.261719h64c-15.234375 45.929688-38.597656 78.027344-64 87.261719zm0-117.261719v-75h81.742188c-.910157 26.851562-4.234376 52.117188-9.429688 75zm0-105v-75h72.359375c5.308594 23.386719 8.503906 48.707031 9.386719 75zm-89.585938-180.621094c-15.347656 20.8125-27.320312 46.769532-35.917968 75.621094h-61.058594c23.046875-33.050781 55.953125-59.960938 96.976562-75.621094zm-114.539062 285.621094c-11.632812-24.179688-18.117188-49.601562-19.886719-75h82.277344c.820313 25.589844 3.722656 50.957031 8.710937 75zm-19.804688-105c1.953126-26.03125 8.75-51.5 19.933594-75h70.957032c-4.988282 24.050781-7.886719 49.417969-8.699219 75zm37.398438 135h61.042969c8.605469 28.878906 20.578125 54.84375 35.910156 75.632812-39.378906-15.039062-73.089844-41.640624-96.953125-75.632812zm246.078125 75.65625c17.6875-23.972656 28.910156-51.96875 35.964844-75.65625h61.21875c-24.152344 34.25-58.21875 60.65625-97.183594 75.65625zm0 0" fill="#1c6c94" transform="matrix(1.3333323001861572, 0, 0, 1.3333323001861572, 0, 0.00025333312805742025)" data-uid="o-e588c0e9b7c84474906e4f498fb29309"></path><path d="m240 0v480.003906c132.980469 0 240-108.023437 240-240.003906 0-132.648438-107.339844-240-240-240zm208.921875 225h-82.25c-.800781-25.050781-3.558594-50.5-8.601563-75h71.171876c10.828124 22.699219 17.75 47.902344 19.679687 75zm-37.21875-105h-61.113281c-8.347656-28.128906-20.136719-54.039062-35.839844-75.398438 38.730469 14.917969 72.773438 41.097657 96.953125 75.398438zm-156.703125-87.210938c31.949219 11.800782 53.25 54.871094 64.03125 87.210938h-64.03125zm0 117.210938h72.359375c5.3125 23.382812 8.5 48.699219 9.382813 75h-81.742188zm0 105h81.742188c-.910157 26.851562-4.230469 52.121094-9.429688 75h-72.3125zm0 192.261719v-87.261719h64c-15.230469 45.933594-38.597656 78.03125-64 87.261719zm59.550781-11.609375c17.691407-23.96875 28.910157-51.960938 35.960938-75.652344h61.21875c-24.148438 34.25-58.21875 60.660156-97.179688 75.652344zm43.460938-105.652344c4.769531-23.230469 7.828125-47.269531 8.679687-75h82.28125c-1.839844 26.929688-8.730468 52.179688-19.640625 75zm0 0" fill="#165771" transform="matrix(1.3333323001861572, 0, 0, 1.3333323001861572, 0, 0.00025333312805742025)" data-uid="o-4fb7997dcef84728b5312118a502f5d9"></path><path d="m507.609375 435.808594-39.980469-39.980469 39.097656-39.101563c8.207032-8.207031 4.359376-22.265624-6.894531-25.140624l-201.46875-51.464844c-11.011719-2.816406-21.0625 7.210937-18.246093 18.246094l51.46875 201.46875c2.875 11.242187 16.929687 15.105468 25.140624 6.890624l39.101563-39.097656 39.980469 39.980469c5.851562 5.851563 15.355468 5.855469 21.210937 0l50.589844-50.589844c5.855469-5.851562 5.855469-15.355469 0-21.210937zm0 0" fill="#fcbe29" transform="matrix(1.3333323001861572, 0, 0, 1.3333323001861572, 0, 0.00025333312805742025)" data-uid="o-88f9eae12c9a4067bb29196f7bb36d05"></path><path d="m482.320312 482.320312-25.296874 25.292969c-5.863282 5.847657-15.363282 5.847657-21.210938 0l-39.980469-39.980469-39.101562 39.097657c-8.210938 8.210937-22.269531 4.351562-25.140625-6.898438l-51.46875-201.46875c-1.410156-5.511719.390625-10.773437 3.941406-14.300781zm0 0" fill="#fe9022" transform="matrix(1.3333323001861572, 0, 0, 1.3333323001861572, 0, 0.00025333312805742025)" data-uid="o-000bf8505a0448f28a6150d75f8cd0b8"></path></g><path text-anchor="middle" offset="0.5" fill="#a55e16" space="preserve" font-scale="contain" font-size="48" font-family="Dela Gothic One" text="ilgiz 87" font-style="normal" font-weight="400" data-fl-textpath="" transform="matrix(2.0551735003526055, 0, 0, 2.0551735003526055, 254.17500492818425, 436.2177782782687)" data-uid="o-1922e48e33d54516bd99abe73eccabef" d="M-94.368-29.04Q-97.392-29.04 -98.856-30.528Q-100.32-32.016 -100.32-34.416L-100.32-34.416Q-100.32-36.768 -98.856-38.304Q-97.392-39.84 -94.368-39.84L-94.368-39.84Q-91.488-39.84 -89.952-38.28Q-88.416-36.72 -88.416-34.416L-88.416-34.416Q-88.416-32.016 -89.904-30.528Q-91.392-29.04 -94.368-29.04L-94.368-29.04ZM-88.512 0L-99.936 0Q-99.6-7.728 -99.6-12.768L-99.6-12.768Q-99.6-18.768 -99.984-26.208L-99.984-26.208L-88.464-26.208Q-88.848-19.056 -88.848-12.768L-88.848-12.768Q-88.848-7.488 -88.512 0L-88.512 0ZM-72.816-19.2Q-72.864-16.32 -72.864-10.368L-72.864-10.368Q-72.864-3.216 -72.768 0L-72.768 0L-84.096 0L-84.048-5.424Q-83.952-14.352 -83.952-19.2L-83.952-19.2Q-83.952-23.808 -84.048-32.256L-84.048-32.256L-84.096-37.44L-72.768-37.44Q-72.864-30.624 -72.864-26.304L-72.864-26.304Q-72.864-21.504 -72.816-19.2L-72.816-19.2ZM-47.472-20.976L-46.272-26.208L-37.056-26.208Q-37.296-18.336 -37.296-3.84L-37.296-3.84Q-37.296 1.872 -39.576 5.52Q-41.856 9.168 -45.6 10.824Q-49.344 12.48 -53.952 12.48L-53.952 12.48Q-58.512 12.48 -62.112 11.16Q-65.712 9.84 -67.584 7.632L-67.584 7.632L-65.424 0.288Q-62.832 1.776 -60.528 2.424Q-58.224 3.072 -55.728 3.072L-55.728 3.072Q-47.568 3.072 -47.568-3.84L-47.568-3.84Q-47.568-4.848 -47.52-5.28L-47.52-5.28Q-47.52-5.568 -47.496-6.048Q-47.472-6.528 -47.52-7.296L-47.52-7.296Q-49.968-0.48 -57.888-0.48L-57.888-0.48Q-61.104-0.48 -63.624-2.208Q-66.144-3.936 -67.536-6.888Q-68.928-9.84 -68.928-13.392L-68.928-13.392Q-68.928-17.04 -67.536-20.088Q-66.144-23.136 -63.648-24.912Q-61.152-26.688 -58.032-26.688L-58.032-26.688Q-49.92-26.688 -47.472-20.976L-47.472-20.976ZM-52.896-8.16Q-51.792-8.16 -50.592-8.664Q-49.392-9.168 -48.528-10.296Q-47.664-11.424 -47.664-13.104L-47.664-13.104Q-47.664-16.08 -49.008-17.352Q-50.352-18.624 -52.992-18.624L-52.992-18.624Q-55.296-18.624 -56.64-17.088Q-57.984-15.552 -57.984-13.104L-57.984-13.104Q-57.984-10.896 -56.52-9.528Q-55.056-8.16 -52.896-8.16L-52.896-8.16ZM-26.784-29.04Q-29.808-29.04 -31.272-30.528Q-32.736-32.016 -32.736-34.416L-32.736-34.416Q-32.736-36.768 -31.272-38.304Q-29.808-39.84 -26.784-39.84L-26.784-39.84Q-23.904-39.84 -22.368-38.28Q-20.832-36.72 -20.832-34.416L-20.832-34.416Q-20.832-32.016 -22.32-30.528Q-23.808-29.04 -26.784-29.04L-26.784-29.04ZM-20.928 0L-32.352 0Q-32.016-7.728 -32.016-12.768L-32.016-12.768Q-32.016-18.768 -32.4-26.208L-32.4-26.208L-20.88-26.208Q-21.264-19.056 -21.264-12.768L-21.264-12.768Q-21.264-7.488 -20.928 0L-20.928 0ZM-3.024-8.064Q 0.912-8.16  4.8-8.352L 4.8-8.352Q 9.6-8.544  11.856-8.592L 11.856-8.592Q 11.472-6.048  11.472 0L 11.472 0L-16.224 0L-16.224-8.064Q-14.16-9.216 -11.76-10.896Q-9.36-12.576 -5.568-15.312L-5.568-15.312Q-3.552-16.848 -2.208-17.76L-2.208-17.76Q-5.472-17.712 -11.04-17.424L-11.04-17.424Q-14.832-17.232 -16.224-17.184L-16.224-17.184Q-16.224-23.52 -16.512-26.208L-16.512-26.208L 11.472-26.208L 11.472-18.144Q 8.496-16.176  4.512-13.296L 4.512-13.296Q-1.296-9.168 -3.024-8.064L-3.024-8.064ZM 56.976-18.816Q 59.088-18.048  60.576-16.656Q 62.064-15.264  62.784-13.608Q 63.504-11.952  63.504-10.512L 63.504-10.512Q 63.504-4.848  58.488-2.184Q 53.472 0.48  44.448 0.48L 44.448 0.48Q 35.376 0.48  30.336-2.184Q 25.296-4.848  25.296-10.512L 25.296-10.512Q 25.296-12.816  26.952-15.24Q 28.608-17.664  31.584-18.816L 31.584-18.816Q 28.944-20.064  27.624-21.576Q 26.304-23.088  26.304-25.632L 26.304-25.632Q 26.304-28.608  28.368-30.936Q 30.432-33.264  34.536-34.56Q 38.64-35.856  44.448-35.856L 44.448-35.856Q 50.208-35.856  54.288-34.56Q 58.368-33.264  60.432-30.936Q 62.496-28.608  62.496-25.632L 62.496-25.632Q 62.496-23.04  61.128-21.552Q 59.76-20.064  56.976-18.816L 56.976-18.816ZM 44.544-21.648Q 47.328-21.648  49.176-22.608Q 51.024-23.568  51.024-25.152L 51.024-25.152Q 51.024-26.736  49.152-27.672Q 47.28-28.608  44.544-28.608L 44.544-28.608Q 41.76-28.608  39.888-27.672Q 38.016-26.736  38.016-25.152L 38.016-25.152Q 38.016-23.52  39.888-22.584Q 41.76-21.648  44.544-21.648L 44.544-21.648ZM 44.544-8.208Q 47.328-8.208  49.176-9.168Q 51.024-10.128  51.024-11.712L 51.024-11.712Q 51.024-13.296  49.152-14.232Q 47.28-15.168  44.544-15.168L 44.544-15.168Q 41.76-15.168  39.888-14.232Q 38.016-13.296  38.016-11.712L 38.016-11.712Q 38.016-10.08  39.888-9.144Q 41.76-8.208  44.544-8.208L 44.544-8.208ZM 67.344-25.392L 67.344-34.896L 102.096-34.896L 102.096-28.704Q 92.688-14.448  87.552 0L 87.552 0L 74.592 0Q 79.824-13.008  88.368-25.872L 88.368-25.872Q 75.072-25.872  67.344-25.392L 67.344-25.392Z"></path></svg>